<svg width="819" height="782" viewBox="0 0 819 782" fill="none" xmlns="http://www.w3.org/2000/svg">
<path d="M471.006 98.8592H312.994V7.29289C312.996 5.35938 313.765 3.50569 315.132 2.13848C316.499 0.771278 318.353 0.00221329 320.286 0H463.713C465.647 0.00221115 467.501 0.771278 468.868 2.13848C470.235 3.50569 471.004 5.35938 471.006 7.29289V98.8592ZM314.614 97.2386H469.386V7.29289C469.384 5.78904 468.786 4.34726 467.722 3.28387C466.659 2.22048 465.217 1.62233 463.713 1.62064H320.286C318.783 1.62233 317.341 2.22048 316.277 3.28387C315.214 4.34726 314.616 5.78904 314.614 7.29289V97.2386Z" fill="#3F3D56"/>
<path d="M357.759 35.2246H426.235C427.965 35.2246 429.623 36.0199 430.846 37.4354C432.069 38.8509 432.756 40.7708 432.756 42.7727V155.994H351.237V42.7727C351.237 40.7708 351.924 38.8509 353.147 37.4354C354.37 36.0199 356.029 35.2246 357.759 35.2246Z" fill="white"/>
<path d="M116.906 529.292C145.548 529.292 168.767 506.073 168.767 477.431C168.767 448.79 145.548 425.571 116.906 425.571C88.2645 425.571 65.0458 448.79 65.0458 477.431C65.0458 506.073 88.2645 529.292 116.906 529.292Z" fill="#020153"/>
<path d="M234.861 138.721C263.502 138.721 286.721 115.502 286.721 86.8606C286.721 58.2188 263.502 35 234.861 35C206.219 35 183 58.2188 183 86.8606C183 115.502 206.219 138.721 234.861 138.721Z" fill="#7B788B"/>
<path d="M223.321 769.904H223.269C221.442 769.901 219.69 768.908 218.399 767.143C217.107 765.377 216.38 762.984 216.378 760.487V207.679C216.38 205.183 217.107 202.789 218.399 201.024C219.69 199.259 221.442 198.266 223.269 198.263H563.744C565.571 198.265 567.322 199.258 568.614 201.024C569.906 202.789 570.633 205.183 570.635 207.679V637.518C570.633 640.002 569.913 642.384 568.633 644.147C567.353 645.911 565.615 646.912 563.797 646.934L223.321 769.904Z" fill="white"/>
<path d="M648 686.365C647.676 686.365 647.362 686.365 647.039 686.357C626.992 686.135 607.716 678.601 592.833 665.169C592.283 664.668 591.737 664.161 591.195 663.647L590.945 663.407V508.107L591.022 507.943C591.558 506.806 592.103 505.685 592.647 504.564C609.502 470.345 629.159 451.501 648 451.501C675.169 451.501 696.241 488.771 706.383 510.987C720.486 541.88 730.336 580.159 730.336 604.077C730.33 625.744 721.78 646.535 706.542 661.939C691.304 677.343 670.606 686.117 648.94 686.357C648.637 686.365 648.314 686.365 648 686.365ZM592.565 662.712C593.014 663.137 593.468 663.555 593.921 663.968C608.514 677.136 627.414 684.521 647.068 684.736C647.396 684.744 647.707 684.736 648.021 684.744C648.315 684.744 648.617 684.744 648.911 684.737C692.921 684.248 728.716 648.065 728.716 604.077C728.716 580.367 718.926 542.364 704.909 511.66C694.928 489.798 674.263 453.122 648 453.122C629.809 453.122 610.668 471.644 594.102 505.276C593.589 506.333 593.074 507.395 592.565 508.47L592.565 662.712Z" fill="#3F3D56"/>
<path d="M647.995 784.615C647.748 784.615 647.511 784.516 647.336 784.341C647.161 784.167 647.063 783.93 647.063 783.682V593.364C647.062 593.241 647.086 593.119 647.132 593.005C647.179 592.891 647.248 592.788 647.334 592.701C647.421 592.614 647.524 592.544 647.637 592.497C647.751 592.45 647.872 592.426 647.995 592.426C648.118 592.426 648.24 592.45 648.353 592.497C648.467 592.544 648.57 592.614 648.657 592.701C648.743 592.788 648.812 592.891 648.858 593.005C648.905 593.119 648.928 593.241 648.928 593.364V783.682C648.928 783.93 648.829 784.167 648.655 784.341C648.48 784.516 648.243 784.615 647.995 784.615Z" fill="#7B788B"/>
<path d="M164.234 784.615C163.986 784.615 163.749 784.516 163.574 784.341C163.4 784.167 163.301 783.93 163.301 783.682V593.364C163.301 593.241 163.324 593.119 163.371 593.005C163.417 592.891 163.486 592.788 163.572 592.701C163.659 592.614 163.762 592.544 163.876 592.497C163.989 592.45 164.111 592.426 164.234 592.426C164.356 592.426 164.478 592.45 164.592 592.497C164.705 592.544 164.808 592.614 164.895 592.701C164.981 592.788 165.05 592.891 165.096 593.005C165.143 593.119 165.167 593.241 165.166 593.364V783.682C165.166 783.93 165.068 784.167 164.893 784.341C164.718 784.516 164.481 784.615 164.234 784.615Z" fill="#7B788B"/>
<path d="M647.996 628.922C647.862 628.922 647.73 628.893 647.608 628.838C647.487 628.782 647.378 628.701 647.291 628.6L600.403 574.527C600.241 574.34 600.161 574.097 600.178 573.851C600.196 573.604 600.311 573.375 600.498 573.213C600.684 573.052 600.927 572.97 601.174 572.988C601.42 573.005 601.65 573.119 601.812 573.305L648.7 627.378C648.817 627.513 648.893 627.679 648.918 627.856C648.944 628.033 648.918 628.214 648.844 628.376C648.769 628.539 648.65 628.677 648.5 628.773C648.349 628.87 648.175 628.921 647.996 628.922V628.922Z" fill="#7B788B"/>
<path d="M647.995 660.128C647.811 660.128 647.631 660.073 647.478 659.971C647.324 659.868 647.205 659.723 647.134 659.552C647.064 659.382 647.045 659.195 647.081 659.014C647.117 658.833 647.206 658.667 647.336 658.536L673.979 631.893C674.154 631.719 674.391 631.622 674.638 631.622C674.884 631.622 675.121 631.721 675.296 631.895C675.47 632.07 675.568 632.306 675.569 632.553C675.569 632.8 675.471 633.037 675.297 633.212L648.655 659.855C648.568 659.942 648.466 660.01 648.352 660.057C648.239 660.104 648.118 660.128 647.995 660.128Z" fill="#7B788B"/>
<path d="M734.252 785H664.56V784.19C664.558 779.612 665.457 775.079 667.208 770.85C668.958 766.62 671.524 762.777 674.76 759.539C677.996 756.302 681.838 753.733 686.067 751.981C690.296 750.229 694.828 749.327 699.406 749.327C703.983 749.327 708.516 750.229 712.745 751.981C716.973 753.733 720.816 756.302 724.052 759.539C727.288 762.777 729.854 766.62 731.604 770.85C733.354 775.079 734.254 779.612 734.252 784.19L734.252 785ZM666.19 783.38H732.621C732.41 774.711 728.818 766.468 722.612 760.411C716.406 754.355 708.078 750.964 699.406 750.964C690.734 750.964 682.406 754.355 676.2 760.411C669.994 766.468 666.402 774.711 666.19 783.38H666.19Z" fill="#3F3D56"/>
<path d="M699.406 764.412C699.162 764.412 698.928 764.509 698.755 764.682C698.583 764.854 698.486 765.088 698.486 765.332V775.104L688.966 766.934C688.875 766.855 688.769 766.794 688.654 766.757C688.539 766.719 688.417 766.704 688.297 766.713C688.176 766.722 688.058 766.755 687.95 766.809C687.842 766.864 687.746 766.939 687.667 767.031C687.589 767.123 687.529 767.229 687.491 767.344C687.454 767.459 687.439 767.581 687.448 767.701C687.458 767.822 687.491 767.939 687.546 768.047C687.6 768.155 687.676 768.251 687.768 768.33L698.486 777.529V783.27C698.485 783.391 698.509 783.511 698.555 783.623C698.601 783.734 698.669 783.836 698.754 783.922C698.84 784.008 698.941 784.076 699.053 784.122C699.165 784.168 699.285 784.192 699.406 784.192C699.527 784.192 699.647 784.168 699.758 784.122C699.87 784.076 699.972 784.008 700.057 783.922C700.143 783.836 700.21 783.734 700.256 783.623C700.302 783.511 700.326 783.391 700.326 783.27V765.332C700.326 765.088 700.229 764.854 700.056 764.682C699.884 764.509 699.65 764.412 699.406 764.412Z" fill="#3F3D56"/>
<path d="M150.01 785H80.3181V784.19C80.3159 779.612 81.2156 775.079 82.9658 770.85C84.716 766.62 87.2823 762.777 90.5183 759.539C93.7543 756.302 97.5964 753.733 101.825 751.981C106.054 750.229 110.587 749.327 115.164 749.327C119.741 749.327 124.274 750.229 128.503 751.981C132.732 753.733 136.574 756.302 139.81 759.539C143.046 762.777 145.612 766.62 147.362 770.85C149.112 775.079 150.012 779.612 150.01 784.19L150.01 785ZM81.9485 783.38H148.38C148.168 774.711 144.576 766.468 138.37 760.411C132.164 754.355 123.836 750.964 115.164 750.964C106.492 750.964 98.1644 754.355 91.9583 760.411C85.7523 766.468 82.1599 774.711 81.9485 783.38H81.9485Z" fill="#3F3D56"/>
<path d="M115.164 764.412C114.92 764.412 114.686 764.509 114.513 764.682C114.341 764.854 114.244 765.088 114.244 765.332V775.104L104.725 766.934C104.633 766.855 104.527 766.794 104.412 766.757C104.297 766.719 104.176 766.704 104.055 766.713C103.934 766.722 103.817 766.755 103.709 766.809C103.601 766.864 103.505 766.939 103.426 767.031C103.347 767.123 103.287 767.229 103.249 767.344C103.212 767.459 103.197 767.581 103.207 767.701C103.216 767.822 103.249 767.939 103.304 768.047C103.359 768.155 103.434 768.251 103.526 768.33L114.244 777.529V783.27C114.244 783.391 114.267 783.511 114.313 783.623C114.359 783.734 114.427 783.836 114.513 783.922C114.598 784.008 114.699 784.076 114.811 784.122C114.923 784.168 115.043 784.192 115.164 784.192C115.285 784.192 115.405 784.168 115.517 784.122C115.628 784.076 115.73 784.008 115.815 783.922C115.901 783.836 115.969 783.734 116.015 783.623C116.061 783.511 116.084 783.391 116.084 783.27V765.332C116.084 765.088 115.987 764.854 115.814 764.682C115.642 764.509 115.408 764.412 115.164 764.412Z" fill="#3F3D56"/>
<path d="M165.048 686.365C164.725 686.365 164.41 686.365 164.087 686.357C142.424 686.112 121.73 677.337 106.494 661.934C91.2589 646.531 82.7103 625.742 82.7028 604.077C82.7028 580.159 92.5531 541.879 106.657 510.987C116.8 488.771 137.873 451.501 165.048 451.501C176.241 451.501 187.512 457.881 198.548 470.464C199.095 471.084 199.643 471.723 200.184 472.378L200.369 472.603V678.413L199.912 678.634C199.367 678.899 198.814 679.147 198.26 679.386C188.091 683.887 177.108 686.259 165.988 686.357C165.686 686.365 165.362 686.365 165.048 686.365ZM165.048 453.122C138.78 453.122 118.113 489.798 108.131 511.66C94.1136 542.363 84.3234 580.366 84.3234 604.077C84.3234 648.057 120.119 684.241 164.117 684.736C164.445 684.745 164.75 684.747 165.069 684.744C165.363 684.744 165.665 684.744 165.959 684.737C176.865 684.641 187.637 682.315 197.611 677.902C197.993 677.736 198.373 677.568 198.749 677.393V473.186C198.28 472.623 197.805 472.072 197.331 471.534C186.615 459.316 175.754 453.122 165.048 453.122Z" fill="#3F3D56"/>
<path d="M165.044 628.922C164.911 628.922 164.778 628.893 164.657 628.838C164.535 628.782 164.427 628.701 164.339 628.6L117.451 574.527C117.29 574.34 117.209 574.097 117.227 573.851C117.245 573.604 117.359 573.375 117.546 573.213C117.733 573.052 117.976 572.97 118.222 572.988C118.468 573.005 118.698 573.119 118.86 573.305L165.748 627.378C165.865 627.513 165.941 627.679 165.967 627.856C165.992 628.033 165.966 628.214 165.892 628.376C165.818 628.539 165.698 628.677 165.548 628.773C165.398 628.87 165.223 628.921 165.044 628.922V628.922Z" fill="#7B788B"/>
<path d="M165.044 660.128C164.859 660.128 164.679 660.073 164.526 659.971C164.373 659.868 164.253 659.723 164.183 659.552C164.112 659.382 164.094 659.195 164.13 659.014C164.166 658.833 164.254 658.667 164.385 658.536L191.027 631.893C191.202 631.719 191.439 631.622 191.686 631.622C191.933 631.622 192.169 631.721 192.344 631.895C192.518 632.07 192.617 632.306 192.617 632.553C192.617 632.8 192.52 633.037 192.346 633.212L165.703 659.855C165.617 659.942 165.514 660.01 165.401 660.057C165.288 660.104 165.166 660.128 165.044 660.128Z" fill="#7B788B"/>
<path d="M237.844 109.956L238.445 111.61C238.711 112.324 238.85 113.117 238.851 113.921V158.668H267.262V113.921C267.262 113.117 267.402 112.324 267.668 111.61L268.269 109.956H237.844ZM265.638 113.921V156.403H240.474V113.921C240.475 113.349 240.425 112.778 240.328 112.222H265.785C265.687 112.778 265.638 113.349 265.638 113.921ZM273.561 109.956L274.162 111.61C274.428 112.324 274.567 113.117 274.568 113.921V158.668H302.979V113.921C302.98 113.117 303.119 112.324 303.385 111.61L303.986 109.956H273.561ZM301.356 113.921V156.403H276.191V113.921C276.192 113.349 276.143 112.778 276.045 112.222H301.502C301.404 112.778 301.355 113.349 301.356 113.921ZM309.278 109.956L309.879 111.61C310.145 112.324 310.285 113.117 310.285 113.921V158.668H338.696V113.921C338.697 113.117 338.836 112.324 339.102 111.61L339.703 109.956H309.278ZM337.073 113.921V156.403H311.908V113.921C311.909 113.349 311.86 112.778 311.762 112.222H337.219C337.122 112.778 337.072 113.349 337.073 113.921ZM344.995 109.956L345.596 111.61C345.863 112.324 346.002 113.117 346.002 113.921V158.668H374.414V113.921C374.414 113.117 374.553 112.324 374.819 111.61L375.42 109.956H344.995ZM372.79 113.921V156.403H347.626V113.921C347.626 113.349 347.577 112.778 347.479 112.222H372.936C372.839 112.778 372.79 113.349 372.79 113.921ZM380.713 109.956L381.314 111.61C381.58 112.324 381.719 113.117 381.719 113.921V158.668H410.131V113.921C410.131 113.117 410.27 112.324 410.537 111.61L411.138 109.956H380.713ZM408.507 113.921V156.403H383.343V113.921C383.343 113.349 383.294 112.778 383.197 112.222H408.654C408.556 112.778 408.507 113.349 408.507 113.921ZM416.43 109.956L417.031 111.61C417.297 112.324 417.436 113.117 417.437 113.921V158.668H445.848V113.921C445.848 113.117 445.988 112.324 446.254 111.61L446.855 109.956H416.43ZM444.225 113.921V156.403H419.06V113.921C419.061 113.349 419.011 112.778 418.914 112.222H444.371C444.273 112.778 444.224 113.349 444.225 113.921ZM452.147 109.956L452.748 111.61C453.014 112.324 453.153 113.117 453.154 113.921V158.668H481.565V113.921C481.566 113.117 481.705 112.324 481.971 111.61L482.572 109.956H452.147ZM479.942 113.921V156.403H454.777V113.921C454.778 113.349 454.729 112.778 454.631 112.222H480.088C479.99 112.778 479.941 113.349 479.942 113.921ZM487.864 109.956L488.465 111.61C488.731 112.324 488.871 113.117 488.871 113.921V158.668H517.282V113.921C517.283 113.117 517.422 112.324 517.688 111.61L518.289 109.956H487.864ZM515.659 113.921V156.403H490.495V113.921C490.495 113.349 490.446 112.778 490.348 112.222H515.805C515.708 112.778 515.658 113.349 515.659 113.921ZM523.581 109.956L524.182 111.61C524.449 112.324 524.588 113.117 524.588 113.921V158.668H553V113.921C553 113.117 553.139 112.324 553.406 111.61L554.006 109.956H523.581ZM551.376 113.921V156.403H526.212V113.921C526.212 113.349 526.163 112.778 526.065 112.222H551.522C551.425 112.778 551.376 113.349 551.376 113.921ZM523.581 109.956L524.182 111.61C524.449 112.324 524.588 113.117 524.588 113.921V158.668H553V113.921C553 113.117 553.139 112.324 553.406 111.61L554.006 109.956H523.581ZM551.376 113.921V156.403H526.212V113.921C526.212 113.349 526.163 112.778 526.065 112.222H551.522C551.425 112.778 551.376 113.349 551.376 113.921ZM487.864 109.956L488.465 111.61C488.731 112.324 488.871 113.117 488.871 113.921V158.668H517.282V113.921C517.283 113.117 517.422 112.324 517.688 111.61L518.289 109.956H487.864ZM515.659 113.921V156.403H490.495V113.921C490.495 113.349 490.446 112.778 490.348 112.222H515.805C515.708 112.778 515.658 113.349 515.659 113.921ZM452.147 109.956L452.748 111.61C453.014 112.324 453.153 113.117 453.154 113.921V158.668H481.565V113.921C481.566 113.117 481.705 112.324 481.971 111.61L482.572 109.956H452.147ZM479.942 113.921V156.403H454.777V113.921C454.778 113.349 454.729 112.778 454.631 112.222H480.088C479.99 112.778 479.941 113.349 479.942 113.921ZM416.43 109.956L417.031 111.61C417.297 112.324 417.436 113.117 417.437 113.921V158.668H445.848V113.921C445.848 113.117 445.988 112.324 446.254 111.61L446.855 109.956H416.43ZM444.225 113.921V156.403H419.06V113.921C419.061 113.349 419.011 112.778 418.914 112.222H444.371C444.273 112.778 444.224 113.349 444.225 113.921ZM380.713 109.956L381.314 111.61C381.58 112.324 381.719 113.117 381.719 113.921V158.668H410.131V113.921C410.131 113.117 410.27 112.324 410.537 111.61L411.138 109.956H380.713ZM408.507 113.921V156.403H383.343V113.921C383.343 113.349 383.294 112.778 383.197 112.222H408.654C408.556 112.778 408.507 113.349 408.507 113.921ZM344.995 109.956L345.596 111.61C345.863 112.324 346.002 113.117 346.002 113.921V158.668H374.414V113.921C374.414 113.117 374.553 112.324 374.819 111.61L375.42 109.956H344.995ZM372.79 113.921V156.403H347.626V113.921C347.626 113.349 347.577 112.778 347.479 112.222H372.936C372.839 112.778 372.79 113.349 372.79 113.921ZM309.278 109.956L309.879 111.61C310.145 112.324 310.285 113.117 310.285 113.921V158.668H338.696V113.921C338.697 113.117 338.836 112.324 339.102 111.61L339.703 109.956H309.278ZM337.073 113.921V156.403H311.908V113.921C311.909 113.349 311.86 112.778 311.762 112.222H337.219C337.122 112.778 337.072 113.349 337.073 113.921ZM273.561 109.956L274.162 111.61C274.428 112.324 274.567 113.117 274.568 113.921V158.668H302.979V113.921C302.98 113.117 303.119 112.324 303.385 111.61L303.986 109.956H273.561ZM301.356 113.921V156.403H276.191V113.921C276.192 113.349 276.143 112.778 276.045 112.222H301.502C301.404 112.778 301.355 113.349 301.356 113.921ZM237.844 109.956L238.445 111.61C238.711 112.324 238.85 113.117 238.851 113.921V158.668H267.262V113.921C267.262 113.117 267.402 112.324 267.668 111.61L268.269 109.956H237.844ZM265.638 113.921V156.403H240.474V113.921C240.475 113.349 240.425 112.778 240.328 112.222H265.785C265.687 112.778 265.638 113.349 265.638 113.921ZM523.581 109.956L524.182 111.61C524.449 112.324 524.588 113.117 524.588 113.921V158.668H553V113.921C553 113.117 553.139 112.324 553.406 111.61L554.006 109.956H523.581ZM551.376 113.921V156.403H526.212V113.921C526.212 113.349 526.163 112.778 526.065 112.222H551.522C551.425 112.778 551.376 113.349 551.376 113.921ZM487.864 109.956L488.465 111.61C488.731 112.324 488.871 113.117 488.871 113.921V158.668H517.282V113.921C517.283 113.117 517.422 112.324 517.688 111.61L518.289 109.956H487.864ZM515.659 113.921V156.403H490.495V113.921C490.495 113.349 490.446 112.778 490.348 112.222H515.805C515.708 112.778 515.658 113.349 515.659 113.921ZM452.147 109.956L452.748 111.61C453.014 112.324 453.153 113.117 453.154 113.921V158.668H481.565V113.921C481.566 113.117 481.705 112.324 481.971 111.61L482.572 109.956H452.147ZM479.942 113.921V156.403H454.777V113.921C454.778 113.349 454.729 112.778 454.631 112.222H480.088C479.99 112.778 479.941 113.349 479.942 113.921ZM416.43 109.956L417.031 111.61C417.297 112.324 417.436 113.117 417.437 113.921V158.668H445.848V113.921C445.848 113.117 445.988 112.324 446.254 111.61L446.855 109.956H416.43ZM444.225 113.921V156.403H419.06V113.921C419.061 113.349 419.011 112.778 418.914 112.222H444.371C444.273 112.778 444.224 113.349 444.225 113.921ZM380.713 109.956L381.314 111.61C381.58 112.324 381.719 113.117 381.719 113.921V158.668H410.131V113.921C410.131 113.117 410.27 112.324 410.537 111.61L411.138 109.956H380.713ZM408.507 113.921V156.403H383.343V113.921C383.343 113.349 383.294 112.778 383.197 112.222H408.654C408.556 112.778 408.507 113.349 408.507 113.921ZM344.995 109.956L345.596 111.61C345.863 112.324 346.002 113.117 346.002 113.921V158.668H374.414V113.921C374.414 113.117 374.553 112.324 374.819 111.61L375.42 109.956H344.995ZM372.79 113.921V156.403H347.626V113.921C347.626 113.349 347.577 112.778 347.479 112.222H372.936C372.839 112.778 372.79 113.349 372.79 113.921ZM309.278 109.956L309.879 111.61C310.145 112.324 310.285 113.117 310.285 113.921V158.668H338.696V113.921C338.697 113.117 338.836 112.324 339.102 111.61L339.703 109.956H309.278ZM337.073 113.921V156.403H311.908V113.921C311.909 113.349 311.86 112.778 311.762 112.222H337.219C337.122 112.778 337.072 113.349 337.073 113.921ZM273.561 109.956L274.162 111.61C274.428 112.324 274.567 113.117 274.568 113.921V158.668H302.979V113.921C302.98 113.117 303.119 112.324 303.385 111.61L303.986 109.956H273.561ZM301.356 113.921V156.403H276.191V113.921C276.192 113.349 276.143 112.778 276.045 112.222H301.502C301.404 112.778 301.355 113.349 301.356 113.921ZM237.844 109.956L238.445 111.61C238.711 112.324 238.85 113.117 238.851 113.921V158.668H267.262V113.921C267.262 113.117 267.402 112.324 267.668 111.61L268.269 109.956H237.844ZM265.638 113.921V156.403H240.474V113.921C240.475 113.349 240.425 112.778 240.328 112.222H265.785C265.687 112.778 265.638 113.349 265.638 113.921ZM523.581 109.956L524.182 111.61C524.449 112.324 524.588 113.117 524.588 113.921V158.668H553V113.921C553 113.117 553.139 112.324 553.406 111.61L554.006 109.956H523.581ZM551.376 113.921V156.403H526.212V113.921C526.212 113.349 526.163 112.778 526.065 112.222H551.522C551.425 112.778 551.376 113.349 551.376 113.921ZM487.864 109.956L488.465 111.61C488.731 112.324 488.871 113.117 488.871 113.921V158.668H517.282V113.921C517.283 113.117 517.422 112.324 517.688 111.61L518.289 109.956H487.864ZM515.659 113.921V156.403H490.495V113.921C490.495 113.349 490.446 112.778 490.348 112.222H515.805C515.708 112.778 515.658 113.349 515.659 113.921ZM452.147 109.956L452.748 111.61C453.014 112.324 453.153 113.117 453.154 113.921V158.668H481.565V113.921C481.566 113.117 481.705 112.324 481.971 111.61L482.572 109.956H452.147ZM479.942 113.921V156.403H454.777V113.921C454.778 113.349 454.729 112.778 454.631 112.222H480.088C479.99 112.778 479.941 113.349 479.942 113.921ZM416.43 109.956L417.031 111.61C417.297 112.324 417.436 113.117 417.437 113.921V158.668H445.848V113.921C445.848 113.117 445.988 112.324 446.254 111.61L446.855 109.956H416.43ZM444.225 113.921V156.403H419.06V113.921C419.061 113.349 419.011 112.778 418.914 112.222H444.371C444.273 112.778 444.224 113.349 444.225 113.921ZM380.713 109.956L381.314 111.61C381.58 112.324 381.719 113.117 381.719 113.921V158.668H410.131V113.921C410.131 113.117 410.27 112.324 410.537 111.61L411.138 109.956H380.713ZM408.507 113.921V156.403H383.343V113.921C383.343 113.349 383.294 112.778 383.197 112.222H408.654C408.556 112.778 408.507 113.349 408.507 113.921ZM344.995 109.956L345.596 111.61C345.863 112.324 346.002 113.117 346.002 113.921V158.668H374.414V113.921C374.414 113.117 374.553 112.324 374.819 111.61L375.42 109.956H344.995ZM372.79 113.921V156.403H347.626V113.921C347.626 113.349 347.577 112.778 347.479 112.222H372.936C372.839 112.778 372.79 113.349 372.79 113.921ZM309.278 109.956L309.879 111.61C310.145 112.324 310.285 113.117 310.285 113.921V158.668H338.696V113.921C338.697 113.117 338.836 112.324 339.102 111.61L339.703 109.956H309.278ZM337.073 113.921V156.403H311.908V113.921C311.909 113.349 311.86 112.778 311.762 112.222H337.219C337.122 112.778 337.072 113.349 337.073 113.921ZM273.561 109.956L274.162 111.61C274.428 112.324 274.567 113.117 274.568 113.921V158.668H302.979V113.921C302.98 113.117 303.119 112.324 303.385 111.61L303.986 109.956H273.561ZM301.356 113.921V156.403H276.191V113.921C276.192 113.349 276.143 112.778 276.045 112.222H301.502C301.404 112.778 301.355 113.349 301.356 113.921ZM237.844 109.956L238.445 111.61C238.711 112.324 238.85 113.117 238.851 113.921V158.668H267.262V113.921C267.262 113.117 267.402 112.324 267.668 111.61L268.269 109.956H237.844ZM265.638 113.921V156.403H240.474V113.921C240.475 113.349 240.425 112.778 240.328 112.222H265.785C265.687 112.778 265.638 113.349 265.638 113.921ZM523.581 109.956L524.182 111.61C524.449 112.324 524.588 113.117 524.588 113.921V158.668H553V113.921C553 113.117 553.139 112.324 553.406 111.61L554.006 109.956H523.581ZM551.376 113.921V156.403H526.212V113.921C526.212 113.349 526.163 112.778 526.065 112.222H551.522C551.425 112.778 551.376 113.349 551.376 113.921ZM487.864 109.956L488.465 111.61C488.731 112.324 488.871 113.117 488.871 113.921V158.668H517.282V113.921C517.283 113.117 517.422 112.324 517.688 111.61L518.289 109.956H487.864ZM515.659 113.921V156.403H490.495V113.921C490.495 113.349 490.446 112.778 490.348 112.222H515.805C515.708 112.778 515.658 113.349 515.659 113.921ZM452.147 109.956L452.748 111.61C453.014 112.324 453.153 113.117 453.154 113.921V158.668H481.565V113.921C481.566 113.117 481.705 112.324 481.971 111.61L482.572 109.956H452.147ZM479.942 113.921V156.403H454.777V113.921C454.778 113.349 454.729 112.778 454.631 112.222H480.088C479.99 112.778 479.941 113.349 479.942 113.921ZM416.43 109.956L417.031 111.61C417.297 112.324 417.436 113.117 417.437 113.921V158.668H445.848V113.921C445.848 113.117 445.988 112.324 446.254 111.61L446.855 109.956H416.43ZM444.225 113.921V156.403H419.06V113.921C419.061 113.349 419.011 112.778 418.914 112.222H444.371C444.273 112.778 444.224 113.349 444.225 113.921ZM380.713 109.956L381.314 111.61C381.58 112.324 381.719 113.117 381.719 113.921V158.668H410.131V113.921C410.131 113.117 410.27 112.324 410.537 111.61L411.138 109.956H380.713ZM408.507 113.921V156.403H383.343V113.921C383.343 113.349 383.294 112.778 383.197 112.222H408.654C408.556 112.778 408.507 113.349 408.507 113.921ZM344.995 109.956L345.596 111.61C345.863 112.324 346.002 113.117 346.002 113.921V158.668H374.414V113.921C374.414 113.117 374.553 112.324 374.819 111.61L375.42 109.956H344.995ZM372.79 113.921V156.403H347.626V113.921C347.626 113.349 347.577 112.778 347.479 112.222H372.936C372.839 112.778 372.79 113.349 372.79 113.921ZM309.278 109.956L309.879 111.61C310.145 112.324 310.285 113.117 310.285 113.921V158.668H338.696V113.921C338.697 113.117 338.836 112.324 339.102 111.61L339.703 109.956H309.278ZM337.073 113.921V156.403H311.908V113.921C311.909 113.349 311.86 112.778 311.762 112.222H337.219C337.122 112.778 337.072 113.349 337.073 113.921ZM273.561 109.956L274.162 111.61C274.428 112.324 274.567 113.117 274.568 113.921V158.668H302.979V113.921C302.98 113.117 303.119 112.324 303.385 111.61L303.986 109.956H273.561ZM301.356 113.921V156.403H276.191V113.921C276.192 113.349 276.143 112.778 276.045 112.222H301.502C301.404 112.778 301.355 113.349 301.356 113.921ZM237.844 109.956L238.445 111.61C238.711 112.324 238.85 113.117 238.851 113.921V158.668H267.262V113.921C267.262 113.117 267.402 112.324 267.668 111.61L268.269 109.956H237.844ZM265.638 113.921V156.403H240.474V113.921C240.475 113.349 240.425 112.778 240.328 112.222H265.785C265.687 112.778 265.638 113.349 265.638 113.921ZM523.581 109.956L524.182 111.61C524.449 112.324 524.588 113.117 524.588 113.921V158.668H553V113.921C553 113.117 553.139 112.324 553.406 111.61L554.006 109.956H523.581ZM551.376 113.921V156.403H526.212V113.921C526.212 113.349 526.163 112.778 526.065 112.222H551.522C551.425 112.778 551.376 113.349 551.376 113.921ZM488.465 111.61C488.731 112.324 488.871 113.117 488.871 113.921V158.668H517.282V113.921C517.283 113.117 517.422 112.324 517.688 111.61L518.289 109.956H487.864L488.465 111.61ZM515.805 112.222C515.708 112.778 515.658 113.349 515.659 113.921V156.403H490.495V113.921C490.495 113.349 490.446 112.778 490.348 112.222H515.805ZM452.748 111.61C453.014 112.324 453.153 113.117 453.154 113.921V158.668H481.565V113.921C481.566 113.117 481.705 112.324 481.971 111.61L482.572 109.956H452.147L452.748 111.61ZM480.088 112.222C479.99 112.778 479.941 113.349 479.942 113.921V156.403H454.777V113.921C454.778 113.349 454.729 112.778 454.631 112.222H480.088ZM417.031 111.61C417.297 112.324 417.436 113.117 417.437 113.921V158.668H445.848V113.921C445.848 113.117 445.988 112.324 446.254 111.61L446.855 109.956H416.43L417.031 111.61ZM444.371 112.222C444.273 112.778 444.224 113.349 444.225 113.921V156.403H419.06V113.921C419.061 113.349 419.011 112.778 418.914 112.222H444.371ZM381.314 111.61C381.58 112.324 381.719 113.117 381.719 113.921V158.668H410.131V113.921C410.131 113.117 410.27 112.324 410.537 111.61L411.138 109.956H380.713L381.314 111.61ZM408.654 112.222C408.556 112.778 408.507 113.349 408.507 113.921V156.403H383.343V113.921C383.343 113.349 383.294 112.778 383.197 112.222H408.654ZM345.596 111.61C345.863 112.324 346.002 113.117 346.002 113.921V158.668H374.414V113.921C374.414 113.117 374.553 112.324 374.819 111.61L375.42 109.956H344.995L345.596 111.61ZM372.936 112.222C372.839 112.778 372.79 113.349 372.79 113.921V156.403H347.626V113.921C347.626 113.349 347.577 112.778 347.479 112.222H372.936ZM309.879 111.61C310.145 112.324 310.285 113.117 310.285 113.921V158.668H338.696V113.921C338.697 113.117 338.836 112.324 339.102 111.61L339.703 109.956H309.278L309.879 111.61ZM337.219 112.222C337.122 112.778 337.072 113.349 337.073 113.921V156.403H311.908V113.921C311.909 113.349 311.86 112.778 311.762 112.222H337.219ZM274.162 111.61C274.428 112.324 274.567 113.117 274.568 113.921V158.668H302.979V113.921C302.98 113.117 303.119 112.324 303.385 111.61L303.986 109.956H273.561L274.162 111.61ZM301.502 112.222C301.404 112.778 301.355 113.349 301.356 113.921V156.403H276.191V113.921C276.192 113.349 276.143 112.778 276.045 112.222H301.502ZM238.445 111.61C238.711 112.324 238.85 113.117 238.851 113.921V158.668H267.262V113.921C267.262 113.117 267.402 112.324 267.668 111.61L268.269 109.956H237.844L238.445 111.61ZM265.785 112.222C265.687 112.778 265.638 113.349 265.638 113.921V156.403H240.474V113.921C240.475 113.349 240.425 112.778 240.328 112.222H265.785ZM524.182 111.61C524.449 112.324 524.588 113.117 524.588 113.921V158.668H553V113.921C553 113.117 553.139 112.324 553.406 111.61L554.006 109.956H523.581L524.182 111.61ZM551.522 112.222C551.425 112.778 551.376 113.349 551.376 113.921V156.403H526.212V113.921C526.212 113.349 526.163 112.778 526.065 112.222H551.522ZM488.465 111.61C488.731 112.324 488.871 113.117 488.871 113.921V158.668H517.282V113.921C517.283 113.117 517.422 112.324 517.688 111.61L518.289 109.956H487.864L488.465 111.61ZM515.805 112.222C515.708 112.778 515.658 113.349 515.659 113.921V156.403H490.495V113.921C490.495 113.349 490.446 112.778 490.348 112.222H515.805ZM452.748 111.61C453.014 112.324 453.153 113.117 453.154 113.921V158.668H481.565V113.921C481.566 113.117 481.705 112.324 481.971 111.61L482.572 109.956H452.147L452.748 111.61ZM480.088 112.222C479.99 112.778 479.941 113.349 479.942 113.921V156.403H454.777V113.921C454.778 113.349 454.729 112.778 454.631 112.222H480.088ZM417.031 111.61C417.297 112.324 417.436 113.117 417.437 113.921V158.668H445.848V113.921C445.848 113.117 445.988 112.324 446.254 111.61L446.855 109.956H416.43L417.031 111.61ZM444.371 112.222C444.273 112.778 444.224 113.349 444.225 113.921V156.403H419.06V113.921C419.061 113.349 419.011 112.778 418.914 112.222H444.371ZM381.314 111.61C381.58 112.324 381.719 113.117 381.719 113.921V158.668H410.131V113.921C410.131 113.117 410.27 112.324 410.537 111.61L411.138 109.956H380.713L381.314 111.61ZM408.654 112.222C408.556 112.778 408.507 113.349 408.507 113.921V156.403H383.343V113.921C383.343 113.349 383.294 112.778 383.197 112.222H408.654ZM345.596 111.61C345.863 112.324 346.002 113.117 346.002 113.921V158.668H374.414V113.921C374.414 113.117 374.553 112.324 374.819 111.61L375.42 109.956H344.995L345.596 111.61ZM372.936 112.222C372.839 112.778 372.79 113.349 372.79 113.921V156.403H347.626V113.921C347.626 113.349 347.577 112.778 347.479 112.222H372.936ZM309.879 111.61C310.145 112.324 310.285 113.117 310.285 113.921V158.668H338.696V113.921C338.697 113.117 338.836 112.324 339.102 111.61L339.703 109.956H309.278L309.879 111.61ZM337.219 112.222C337.122 112.778 337.072 113.349 337.073 113.921V156.403H311.908V113.921C311.909 113.349 311.86 112.778 311.762 112.222H337.219ZM274.162 111.61C274.428 112.324 274.567 113.117 274.568 113.921V158.668H302.979V113.921C302.98 113.117 303.119 112.324 303.385 111.61L303.986 109.956H273.561L274.162 111.61ZM301.502 112.222C301.404 112.778 301.355 113.349 301.356 113.921V156.403H276.191V113.921C276.192 113.349 276.143 112.778 276.045 112.222H301.502ZM238.445 111.61C238.711 112.324 238.85 113.117 238.851 113.921V158.668H267.262V113.921C267.262 113.117 267.402 112.324 267.668 111.61L268.269 109.956H237.844L238.445 111.61ZM265.785 112.222C265.687 112.778 265.638 113.349 265.638 113.921V156.403H240.474V113.921C240.475 113.349 240.425 112.778 240.328 112.222H265.785ZM585.47 165.465H575.794C575.26 162.859 574.134 160.566 572.585 158.931C571.036 157.296 569.148 156.409 567.205 156.403H561.929V113.921C561.931 113.009 561.807 112.105 561.564 111.259C562.483 110.503 563.199 109.346 563.601 107.966C564.003 106.586 564.068 105.059 563.786 103.623C563.504 102.186 562.892 100.918 562.043 100.016C561.194 99.1129 560.155 98.6253 559.088 98.6279H232.762C231.695 98.6253 230.657 99.1129 229.808 100.016C228.958 100.918 228.346 102.186 228.064 103.623C227.783 105.059 227.848 106.586 228.249 107.966C228.651 109.346 229.367 110.503 230.287 111.259C230.043 112.105 229.919 113.009 229.921 113.921V156.403H224.645C222.703 156.409 220.815 157.296 219.266 158.931C217.716 160.566 216.59 162.859 216.056 165.465H205.569C203.632 165.469 201.775 166.545 200.406 168.456C199.036 170.367 198.266 172.958 198.263 175.661V773.798C198.267 776.5 199.038 779.09 200.407 781.001C201.776 782.911 203.632 783.987 205.569 783.993H585.47C587.407 783.989 589.263 782.914 590.633 781.003C592.002 779.092 592.773 776.501 592.776 773.798V175.661C592.773 172.958 592.002 170.367 590.633 168.456C589.263 166.545 587.407 165.469 585.47 165.465ZM591.152 773.798C591.151 775.417 590.795 776.996 590.132 778.325C589.469 779.653 588.53 780.666 587.443 781.229C586.813 781.564 586.144 781.733 585.47 781.728H205.569C204.895 781.733 204.226 781.564 203.596 781.229C202.508 780.666 201.57 779.653 200.907 778.325C200.244 776.996 199.888 775.417 199.886 773.798V175.661C199.888 173.558 200.487 171.543 201.552 170.056C202.618 168.569 204.062 167.733 205.569 167.731H217.355L217.485 166.825C217.827 164.525 218.724 162.459 220.028 160.974C221.332 159.489 222.962 158.675 224.645 158.668H231.545V113.921C231.545 112.999 231.725 112.095 232.064 111.304L232.567 110.138L231.65 109.662C230.933 109.299 230.331 108.595 229.95 107.674C229.568 106.753 229.432 105.673 229.565 104.625C229.698 103.577 230.091 102.629 230.676 101.946C231.261 101.263 232 100.891 232.762 100.894H559.088C559.85 100.891 560.589 101.263 561.174 101.946C561.759 102.629 562.152 103.577 562.285 104.625C562.418 105.673 562.282 106.753 561.9 107.674C561.519 108.595 560.917 109.299 560.2 109.662L559.283 110.138L559.786 111.304C560.126 112.095 560.305 112.999 560.305 113.921V158.668H567.205C568.888 158.674 570.518 159.489 571.822 160.974C573.126 162.459 574.024 164.525 574.365 166.825L574.495 167.731H585.47C586.976 167.733 588.421 168.569 589.486 170.056C590.551 171.543 591.15 173.558 591.152 175.661L591.152 773.798ZM237.844 109.956L238.445 111.61C238.711 112.324 238.85 113.117 238.851 113.921V158.668H267.262V113.921C267.262 113.117 267.402 112.324 267.668 111.61L268.269 109.956H237.844ZM265.638 113.921V156.403H240.474V113.921C240.475 113.349 240.425 112.778 240.328 112.222H265.785C265.687 112.778 265.638 113.349 265.638 113.921ZM273.561 109.956L274.162 111.61C274.428 112.324 274.567 113.117 274.568 113.921V158.668H302.979V113.921C302.98 113.117 303.119 112.324 303.385 111.61L303.986 109.956H273.561ZM301.356 113.921V156.403H276.191V113.921C276.192 113.349 276.143 112.778 276.045 112.222H301.502C301.404 112.778 301.355 113.349 301.356 113.921ZM309.278 109.956L309.879 111.61C310.145 112.324 310.285 113.117 310.285 113.921V158.668H338.696V113.921C338.697 113.117 338.836 112.324 339.102 111.61L339.703 109.956H309.278ZM337.073 113.921V156.403H311.908V113.921C311.909 113.349 311.86 112.778 311.762 112.222H337.219C337.122 112.778 337.072 113.349 337.073 113.921ZM344.995 109.956L345.596 111.61C345.863 112.324 346.002 113.117 346.002 113.921V158.668H374.414V113.921C374.414 113.117 374.553 112.324 374.819 111.61L375.42 109.956H344.995ZM372.79 113.921V156.403H347.626V113.921C347.626 113.349 347.577 112.778 347.479 112.222H372.936C372.839 112.778 372.79 113.349 372.79 113.921ZM380.713 109.956L381.314 111.61C381.58 112.324 381.719 113.117 381.719 113.921V158.668H410.131V113.921C410.131 113.117 410.27 112.324 410.537 111.61L411.138 109.956H380.713ZM408.507 113.921V156.403H383.343V113.921C383.343 113.349 383.294 112.778 383.197 112.222H408.654C408.556 112.778 408.507 113.349 408.507 113.921ZM416.43 109.956L417.031 111.61C417.297 112.324 417.436 113.117 417.437 113.921V158.668H445.848V113.921C445.848 113.117 445.988 112.324 446.254 111.61L446.855 109.956H416.43ZM444.225 113.921V156.403H419.06V113.921C419.061 113.349 419.011 112.778 418.914 112.222H444.371C444.273 112.778 444.224 113.349 444.225 113.921ZM452.147 109.956L452.748 111.61C453.014 112.324 453.153 113.117 453.154 113.921V158.668H481.565V113.921C481.566 113.117 481.705 112.324 481.971 111.61L482.572 109.956H452.147ZM479.942 113.921V156.403H454.777V113.921C454.778 113.349 454.729 112.778 454.631 112.222H480.088C479.99 112.778 479.941 113.349 479.942 113.921ZM487.864 109.956L488.465 111.61C488.731 112.324 488.871 113.117 488.871 113.921V158.668H517.282V113.921C517.283 113.117 517.422 112.324 517.688 111.61L518.289 109.956H487.864ZM515.659 113.921V156.403H490.495V113.921C490.495 113.349 490.446 112.778 490.348 112.222H515.805C515.708 112.778 515.658 113.349 515.659 113.921ZM523.581 109.956L524.182 111.61C524.449 112.324 524.588 113.117 524.588 113.921V158.668H553V113.921C553 113.117 553.139 112.324 553.406 111.61L554.006 109.956H523.581ZM551.376 113.921V156.403H526.212V113.921C526.212 113.349 526.163 112.778 526.065 112.222H551.522C551.425 112.778 551.376 113.349 551.376 113.921ZM237.844 109.956L238.445 111.61C238.711 112.324 238.85 113.117 238.851 113.921V158.668H267.262V113.921C267.262 113.117 267.402 112.324 267.668 111.61L268.269 109.956H237.844ZM265.638 113.921V156.403H240.474V113.921C240.475 113.349 240.425 112.778 240.328 112.222H265.785C265.687 112.778 265.638 113.349 265.638 113.921ZM273.561 109.956L274.162 111.61C274.428 112.324 274.567 113.117 274.568 113.921V158.668H302.979V113.921C302.98 113.117 303.119 112.324 303.385 111.61L303.986 109.956H273.561ZM301.356 113.921V156.403H276.191V113.921C276.192 113.349 276.143 112.778 276.045 112.222H301.502C301.404 112.778 301.355 113.349 301.356 113.921ZM309.278 109.956L309.879 111.61C310.145 112.324 310.285 113.117 310.285 113.921V158.668H338.696V113.921C338.697 113.117 338.836 112.324 339.102 111.61L339.703 109.956H309.278ZM337.073 113.921V156.403H311.908V113.921C311.909 113.349 311.86 112.778 311.762 112.222H337.219C337.122 112.778 337.072 113.349 337.073 113.921ZM344.995 109.956L345.596 111.61C345.863 112.324 346.002 113.117 346.002 113.921V158.668H374.414V113.921C374.414 113.117 374.553 112.324 374.819 111.61L375.42 109.956H344.995ZM372.79 113.921V156.403H347.626V113.921C347.626 113.349 347.577 112.778 347.479 112.222H372.936C372.839 112.778 372.79 113.349 372.79 113.921ZM380.713 109.956L381.314 111.61C381.58 112.324 381.719 113.117 381.719 113.921V158.668H410.131V113.921C410.131 113.117 410.27 112.324 410.537 111.61L411.138 109.956H380.713ZM408.507 113.921V156.403H383.343V113.921C383.343 113.349 383.294 112.778 383.197 112.222H408.654C408.556 112.778 408.507 113.349 408.507 113.921ZM416.43 109.956L417.031 111.61C417.297 112.324 417.436 113.117 417.437 113.921V158.668H445.848V113.921C445.848 113.117 445.988 112.324 446.254 111.61L446.855 109.956H416.43ZM444.225 113.921V156.403H419.06V113.921C419.061 113.349 419.011 112.778 418.914 112.222H444.371C444.273 112.778 444.224 113.349 444.225 113.921ZM452.147 109.956L452.748 111.61C453.014 112.324 453.153 113.117 453.154 113.921V158.668H481.565V113.921C481.566 113.117 481.705 112.324 481.971 111.61L482.572 109.956H452.147ZM479.942 113.921V156.403H454.777V113.921C454.778 113.349 454.729 112.778 454.631 112.222H480.088C479.99 112.778 479.941 113.349 479.942 113.921ZM487.864 109.956L488.465 111.61C488.731 112.324 488.871 113.117 488.871 113.921V158.668H517.282V113.921C517.283 113.117 517.422 112.324 517.688 111.61L518.289 109.956H487.864ZM515.659 113.921V156.403H490.495V113.921C490.495 113.349 490.446 112.778 490.348 112.222H515.805C515.708 112.778 515.658 113.349 515.659 113.921ZM523.581 109.956L524.182 111.61C524.449 112.324 524.588 113.117 524.588 113.921V158.668H553V113.921C553 113.117 553.139 112.324 553.406 111.61L554.006 109.956H523.581ZM551.376 113.921V156.403H526.212V113.921C526.212 113.349 526.163 112.778 526.065 112.222H551.522C551.425 112.778 551.376 113.349 551.376 113.921ZM237.844 109.956L238.445 111.61C238.711 112.324 238.85 113.117 238.851 113.921V158.668H267.262V113.921C267.262 113.117 267.402 112.324 267.668 111.61L268.269 109.956H237.844ZM265.638 113.921V156.403H240.474V113.921C240.475 113.349 240.425 112.778 240.328 112.222H265.785C265.687 112.778 265.638 113.349 265.638 113.921ZM273.561 109.956L274.162 111.61C274.428 112.324 274.567 113.117 274.568 113.921V158.668H302.979V113.921C302.98 113.117 303.119 112.324 303.385 111.61L303.986 109.956H273.561ZM301.356 113.921V156.403H276.191V113.921C276.192 113.349 276.143 112.778 276.045 112.222H301.502C301.404 112.778 301.355 113.349 301.356 113.921ZM309.278 109.956L309.879 111.61C310.145 112.324 310.285 113.117 310.285 113.921V158.668H338.696V113.921C338.697 113.117 338.836 112.324 339.102 111.61L339.703 109.956H309.278ZM337.073 113.921V156.403H311.908V113.921C311.909 113.349 311.86 112.778 311.762 112.222H337.219C337.122 112.778 337.072 113.349 337.073 113.921ZM344.995 109.956L345.596 111.61C345.863 112.324 346.002 113.117 346.002 113.921V158.668H374.414V113.921C374.414 113.117 374.553 112.324 374.819 111.61L375.42 109.956H344.995ZM372.79 113.921V156.403H347.626V113.921C347.626 113.349 347.577 112.778 347.479 112.222H372.936C372.839 112.778 372.79 113.349 372.79 113.921ZM380.713 109.956L381.314 111.61C381.58 112.324 381.719 113.117 381.719 113.921V158.668H410.131V113.921C410.131 113.117 410.27 112.324 410.537 111.61L411.138 109.956H380.713ZM408.507 113.921V156.403H383.343V113.921C383.343 113.349 383.294 112.778 383.197 112.222H408.654C408.556 112.778 408.507 113.349 408.507 113.921ZM416.43 109.956L417.031 111.61C417.297 112.324 417.436 113.117 417.437 113.921V158.668H445.848V113.921C445.848 113.117 445.988 112.324 446.254 111.61L446.855 109.956H416.43ZM444.225 113.921V156.403H419.06V113.921C419.061 113.349 419.011 112.778 418.914 112.222H444.371C444.273 112.778 444.224 113.349 444.225 113.921ZM452.147 109.956L452.748 111.61C453.014 112.324 453.153 113.117 453.154 113.921V158.668H481.565V113.921C481.566 113.117 481.705 112.324 481.971 111.61L482.572 109.956H452.147ZM479.942 113.921V156.403H454.777V113.921C454.778 113.349 454.729 112.778 454.631 112.222H480.088C479.99 112.778 479.941 113.349 479.942 113.921ZM487.864 109.956L488.465 111.61C488.731 112.324 488.871 113.117 488.871 113.921V158.668H517.282V113.921C517.283 113.117 517.422 112.324 517.688 111.61L518.289 109.956H487.864ZM515.659 113.921V156.403H490.495V113.921C490.495 113.349 490.446 112.778 490.348 112.222H515.805C515.708 112.778 515.658 113.349 515.659 113.921ZM523.581 109.956L524.182 111.61C524.449 112.324 524.588 113.117 524.588 113.921V158.668H553V113.921C553 113.117 553.139 112.324 553.406 111.61L554.006 109.956H523.581ZM551.376 113.921V156.403H526.212V113.921C526.212 113.349 526.163 112.778 526.065 112.222H551.522C551.425 112.778 551.376 113.349 551.376 113.921ZM237.844 109.956L238.445 111.61C238.711 112.324 238.85 113.117 238.851 113.921V158.668H267.262V113.921C267.262 113.117 267.402 112.324 267.668 111.61L268.269 109.956H237.844ZM265.638 113.921V156.403H240.474V113.921C240.475 113.349 240.425 112.778 240.328 112.222H265.785C265.687 112.778 265.638 113.349 265.638 113.921ZM273.561 109.956L274.162 111.61C274.428 112.324 274.567 113.117 274.568 113.921V158.668H302.979V113.921C302.98 113.117 303.119 112.324 303.385 111.61L303.986 109.956H273.561ZM301.356 113.921V156.403H276.191V113.921C276.192 113.349 276.143 112.778 276.045 112.222H301.502C301.404 112.778 301.355 113.349 301.356 113.921ZM309.278 109.956L309.879 111.61C310.145 112.324 310.285 113.117 310.285 113.921V158.668H338.696V113.921C338.697 113.117 338.836 112.324 339.102 111.61L339.703 109.956H309.278ZM337.073 113.921V156.403H311.908V113.921C311.909 113.349 311.86 112.778 311.762 112.222H337.219C337.122 112.778 337.072 113.349 337.073 113.921ZM344.995 109.956L345.596 111.61C345.863 112.324 346.002 113.117 346.002 113.921V158.668H374.414V113.921C374.414 113.117 374.553 112.324 374.819 111.61L375.42 109.956H344.995ZM372.79 113.921V156.403H347.626V113.921C347.626 113.349 347.577 112.778 347.479 112.222H372.936C372.839 112.778 372.79 113.349 372.79 113.921ZM380.713 109.956L381.314 111.61C381.58 112.324 381.719 113.117 381.719 113.921V158.668H410.131V113.921C410.131 113.117 410.27 112.324 410.537 111.61L411.138 109.956H380.713ZM408.507 113.921V156.403H383.343V113.921C383.343 113.349 383.294 112.778 383.197 112.222H408.654C408.556 112.778 408.507 113.349 408.507 113.921ZM416.43 109.956L417.031 111.61C417.297 112.324 417.436 113.117 417.437 113.921V158.668H445.848V113.921C445.848 113.117 445.988 112.324 446.254 111.61L446.855 109.956H416.43ZM444.225 113.921V156.403H419.06V113.921C419.061 113.349 419.011 112.778 418.914 112.222H444.371C444.273 112.778 444.224 113.349 444.225 113.921ZM452.147 109.956L452.748 111.61C453.014 112.324 453.153 113.117 453.154 113.921V158.668H481.565V113.921C481.566 113.117 481.705 112.324 481.971 111.61L482.572 109.956H452.147ZM479.942 113.921V156.403H454.777V113.921C454.778 113.349 454.729 112.778 454.631 112.222H480.088C479.99 112.778 479.941 113.349 479.942 113.921ZM487.864 109.956L488.465 111.61C488.731 112.324 488.871 113.117 488.871 113.921V158.668H517.282V113.921C517.283 113.117 517.422 112.324 517.688 111.61L518.289 109.956H487.864ZM515.659 113.921V156.403H490.495V113.921C490.495 113.349 490.446 112.778 490.348 112.222H515.805C515.708 112.778 515.658 113.349 515.659 113.921ZM523.581 109.956L524.182 111.61C524.449 112.324 524.588 113.117 524.588 113.921V158.668H553V113.921C553 113.117 553.139 112.324 553.406 111.61L554.006 109.956H523.581ZM551.376 113.921V156.403H526.212V113.921C526.212 113.349 526.163 112.778 526.065 112.222H551.522C551.425 112.778 551.376 113.349 551.376 113.921Z" fill="#3F3D56"/>
<path d="M333.595 412.199H273.839C272.58 412.198 271.374 411.697 270.484 410.808C269.594 409.918 269.093 408.711 269.092 407.452V375.62C269.093 374.361 269.594 373.155 270.484 372.265C271.374 371.375 272.58 370.874 273.839 370.873H333.595C334.853 370.874 336.06 371.375 336.95 372.265C337.84 373.155 338.34 374.361 338.342 375.62V407.452C338.34 408.711 337.84 409.918 336.95 410.808C336.06 411.697 334.853 412.198 333.595 412.199Z" fill="#7B788B"/>
<path d="M424.529 412.199H364.773C363.514 412.198 362.308 411.697 361.418 410.808C360.528 409.918 360.027 408.711 360.026 407.452V375.62C360.027 374.361 360.528 373.155 361.418 372.265C362.308 371.375 363.514 370.874 364.773 370.873H424.529C425.787 370.874 426.994 371.375 427.884 372.265C428.773 373.155 429.274 374.361 429.275 375.62V407.452C429.274 408.711 428.773 409.918 427.884 410.808C426.994 411.697 425.787 412.198 424.529 412.199Z" fill="#7B788B"/>
<path d="M515.462 412.199H455.707C454.448 412.198 453.242 411.697 452.352 410.808C451.462 409.918 450.961 408.711 450.96 407.452V375.62C450.961 374.361 451.462 373.155 452.352 372.265C453.242 371.375 454.448 370.874 455.707 370.873H515.462C516.721 370.874 517.928 371.375 518.817 372.265C519.707 373.155 520.208 374.361 520.209 375.62V407.452C520.208 408.711 519.707 409.918 518.817 410.808C517.928 411.697 516.721 412.198 515.462 412.199Z" fill="#7B788B"/>
<path d="M333.595 518.351H273.839C272.58 518.35 271.374 517.849 270.484 516.959C269.594 516.069 269.093 514.863 269.092 513.604V481.772C269.093 480.513 269.594 479.307 270.484 478.417C271.374 477.527 272.58 477.026 273.839 477.025H333.595C334.853 477.026 336.06 477.527 336.95 478.417C337.84 479.307 338.34 480.513 338.342 481.772V513.604C338.34 514.863 337.84 516.069 336.95 516.959C336.06 517.849 334.853 518.35 333.595 518.351Z" fill="#7B788B"/>
<path d="M424.529 518.351H364.773C363.514 518.35 362.308 517.849 361.418 516.959C360.528 516.069 360.027 514.863 360.026 513.604V481.772C360.027 480.513 360.528 479.307 361.418 478.417C362.308 477.527 363.514 477.026 364.773 477.025H424.529C425.787 477.026 426.994 477.527 427.884 478.417C428.773 479.307 429.274 480.513 429.275 481.772V513.604C429.274 514.863 428.773 516.069 427.884 516.959C426.994 517.849 425.787 518.35 424.529 518.351Z" fill="#7B788B"/>
<path d="M515.462 518.351H455.707C454.448 518.35 453.242 517.849 452.352 516.959C451.462 516.069 450.961 514.863 450.96 513.604V481.772C450.961 480.513 451.462 479.307 452.352 478.417C453.242 477.527 454.448 477.026 455.707 477.025H515.462C516.721 477.026 517.928 477.527 518.817 478.417C519.707 479.307 520.208 480.513 520.209 481.772V513.604C520.208 514.863 519.707 516.069 518.817 516.959C517.928 517.849 516.721 518.35 515.462 518.351Z" fill="#7B788B"/>
<path d="M333.595 624.504H273.839C272.58 624.502 271.374 624.002 270.484 623.112C269.594 622.222 269.093 621.015 269.092 619.757V587.924C269.093 586.666 269.594 585.459 270.484 584.569C271.374 583.679 272.58 583.179 273.839 583.177H333.595C334.853 583.179 336.06 583.679 336.95 584.569C337.84 585.459 338.34 586.666 338.342 587.924V619.757C338.34 621.015 337.84 622.222 336.95 623.112C336.06 624.002 334.853 624.502 333.595 624.504Z" fill="#7B788B"/>
<path d="M424.529 624.504H364.773C363.514 624.502 362.308 624.002 361.418 623.112C360.528 622.222 360.027 621.015 360.026 619.757V587.924C360.027 586.666 360.528 585.459 361.418 584.569C362.308 583.679 363.514 583.179 364.773 583.177H424.529C425.787 583.179 426.994 583.679 427.884 584.569C428.773 585.459 429.274 586.666 429.275 587.924V619.757C429.274 621.015 428.773 622.222 427.884 623.112C426.994 624.002 425.787 624.502 424.529 624.504Z" fill="#7B788B"/>
<path d="M515.462 624.504H455.707C454.448 624.502 453.242 624.002 452.352 623.112C451.462 622.222 450.961 621.015 450.96 619.757V587.924C450.961 586.666 451.462 585.459 452.352 584.569C453.242 583.679 454.448 583.179 455.707 583.177H515.462C516.721 583.179 517.928 583.679 518.817 584.569C519.707 585.459 520.208 586.666 520.209 587.924V619.757C520.208 621.015 519.707 622.222 518.817 623.112C517.928 624.002 516.721 624.502 515.462 624.504Z" fill="#7B788B"/>
<path d="M323.921 416.284H254.697C253.024 416.282 251.42 415.617 250.238 414.434C249.055 413.251 248.389 411.647 248.388 409.974V373.098C248.389 371.425 249.055 369.822 250.238 368.639C251.42 367.456 253.024 366.791 254.697 366.789H323.921C325.593 366.791 327.197 367.456 328.38 368.639C329.563 369.822 330.228 371.425 330.23 373.098V409.974C330.228 411.647 329.563 413.251 328.38 414.434C327.197 415.617 325.593 416.282 323.921 416.284ZM254.697 368.409C253.454 368.411 252.262 368.905 251.383 369.784C250.504 370.663 250.009 371.855 250.008 373.098V409.974C250.009 411.217 250.504 412.409 251.383 413.288C252.262 414.167 253.454 414.662 254.697 414.663H323.921C325.164 414.662 326.356 414.167 327.235 413.288C328.114 412.409 328.608 411.217 328.609 409.974V373.098C328.608 371.855 328.114 370.663 327.235 369.784C326.356 368.905 325.164 368.411 323.921 368.409H254.697Z" fill="#3F3D56"/>
<path d="M429.262 416.284H360.039C358.366 416.282 356.762 415.617 355.579 414.434C354.397 413.251 353.731 411.647 353.729 409.974V373.098C353.731 371.425 354.397 369.822 355.579 368.639C356.762 367.456 358.366 366.791 360.039 366.789H429.262C430.935 366.791 432.539 367.456 433.722 368.639C434.905 369.822 435.57 371.425 435.572 373.098V409.974C435.57 411.647 434.905 413.251 433.722 414.434C432.539 415.617 430.935 416.282 429.262 416.284ZM360.039 368.409C358.796 368.411 357.604 368.905 356.725 369.784C355.846 370.663 355.351 371.855 355.35 373.098V409.974C355.351 411.217 355.846 412.409 356.725 413.288C357.604 414.167 358.796 414.662 360.039 414.663H429.262C430.506 414.662 431.697 414.167 432.576 413.288C433.455 412.409 433.95 411.217 433.951 409.974V373.098C433.95 371.855 433.455 370.663 432.576 369.784C431.697 368.905 430.506 368.411 429.262 368.409H360.039Z" fill="#3F3D56"/>
<path d="M534.604 416.284H465.38C463.708 416.282 462.104 415.617 460.921 414.434C459.738 413.251 459.073 411.647 459.071 409.974V373.098C459.073 371.425 459.738 369.822 460.921 368.639C462.104 367.456 463.708 366.791 465.38 366.789H534.604C536.277 366.791 537.881 367.456 539.063 368.639C540.246 369.822 540.912 371.425 540.913 373.098V409.974C540.912 411.647 540.246 413.251 539.063 414.434C537.881 415.617 536.277 416.282 534.604 416.284ZM465.38 368.409C464.137 368.411 462.945 368.905 462.066 369.784C461.187 370.663 460.693 371.855 460.692 373.098V409.974C460.693 411.217 461.187 412.409 462.066 413.288C462.945 414.167 464.137 414.662 465.38 414.663H534.604C535.847 414.662 537.039 414.167 537.918 413.288C538.797 412.409 539.291 411.217 539.293 409.974V373.098C539.291 371.855 538.797 370.663 537.918 369.784C537.039 368.905 535.847 368.411 534.604 368.409H465.38Z" fill="#3F3D56"/>
<path d="M331.778 298.02H272.022C270.763 298.018 269.557 297.518 268.667 296.628C267.777 295.738 267.276 294.531 267.275 293.273V261.44C267.276 260.182 267.777 258.975 268.667 258.085C269.557 257.195 270.763 256.695 272.022 256.693H331.778C333.036 256.695 334.243 257.195 335.133 258.085C336.023 258.975 336.523 260.182 336.525 261.44V293.273C336.523 294.531 336.023 295.738 335.133 296.628C334.243 297.518 333.036 298.018 331.778 298.02Z" fill="#7B788B"/>
<path d="M422.712 298.02H362.956C361.697 298.018 360.491 297.518 359.601 296.628C358.711 295.738 358.21 294.531 358.209 293.273V261.44C358.21 260.182 358.711 258.975 359.601 258.085C360.491 257.195 361.697 256.695 362.956 256.693H422.712C423.97 256.695 425.177 257.195 426.067 258.085C426.957 258.975 427.457 260.182 427.459 261.44V293.273C427.457 294.531 426.957 295.738 426.067 296.628C425.177 297.518 423.97 298.018 422.712 298.02Z" fill="#7B788B"/>
<path d="M513.645 298.02H453.89C452.631 298.018 451.425 297.518 450.535 296.628C449.645 295.738 449.144 294.531 449.143 293.273V261.44C449.144 260.182 449.645 258.975 450.535 258.085C451.425 257.195 452.631 256.695 453.89 256.693H513.645C514.904 256.695 516.111 257.195 517.001 258.085C517.89 258.975 518.391 260.182 518.392 261.44V293.273C518.391 294.531 517.89 295.738 517.001 296.628C516.111 297.518 514.904 298.018 513.645 298.02Z" fill="#7B788B"/>
<path d="M322.104 302.104H252.88C251.207 302.102 249.603 301.437 248.421 300.254C247.238 299.071 246.572 297.467 246.57 295.795V258.919C246.572 257.246 247.238 255.642 248.421 254.459C249.603 253.276 251.207 252.611 252.88 252.609H322.104C323.776 252.611 325.38 253.276 326.563 254.459C327.746 255.642 328.411 257.246 328.413 258.919V295.795C328.411 297.467 327.746 299.071 326.563 300.254C325.38 301.437 323.776 302.102 322.104 302.104ZM252.88 254.23C251.637 254.231 250.445 254.725 249.566 255.605C248.687 256.484 248.192 257.675 248.191 258.919V295.795C248.192 297.038 248.687 298.23 249.566 299.109C250.445 299.988 251.637 300.482 252.88 300.484H322.104C323.347 300.482 324.539 299.988 325.418 299.109C326.297 298.23 326.791 297.038 326.792 295.795V258.919C326.791 257.675 326.297 256.484 325.418 255.604C324.539 254.725 323.347 254.231 322.104 254.23H252.88Z" fill="#3F3D56"/>
<path d="M427.445 302.104H358.222C356.549 302.102 354.945 301.437 353.762 300.254C352.58 299.071 351.914 297.467 351.912 295.795V258.919C351.914 257.246 352.58 255.642 353.762 254.459C354.945 253.276 356.549 252.611 358.222 252.609H427.445C429.118 252.611 430.722 253.276 431.905 254.459C433.088 255.642 433.753 257.246 433.755 258.919V295.795C433.753 297.467 433.088 299.071 431.905 300.254C430.722 301.437 429.118 302.102 427.445 302.104ZM358.222 254.23C356.979 254.231 355.787 254.725 354.908 255.604C354.029 256.484 353.534 257.675 353.533 258.919V295.795C353.534 297.038 354.029 298.23 354.908 299.109C355.787 299.988 356.979 300.482 358.222 300.484H427.445C428.689 300.482 429.88 299.988 430.759 299.109C431.638 298.23 432.133 297.038 432.134 295.795V258.919C432.133 257.675 431.638 256.484 430.759 255.604C429.88 254.725 428.689 254.231 427.445 254.23H358.222Z" fill="#3F3D56"/>
<path d="M532.787 302.104H463.563C461.891 302.102 460.287 301.437 459.104 300.254C457.921 299.071 457.256 297.467 457.254 295.795V258.919C457.256 257.246 457.921 255.642 459.104 254.459C460.287 253.276 461.891 252.611 463.563 252.609H532.787C534.46 252.611 536.064 253.276 537.246 254.459C538.429 255.642 539.095 257.246 539.096 258.919V295.795C539.095 297.467 538.429 299.071 537.246 300.254C536.064 301.437 534.46 302.102 532.787 302.104ZM463.563 254.23C462.32 254.231 461.129 254.725 460.25 255.604C459.37 256.484 458.876 257.675 458.875 258.919V295.795C458.876 297.038 459.37 298.23 460.25 299.109C461.129 299.988 462.32 300.482 463.563 300.484H532.787C534.03 300.482 535.222 299.988 536.101 299.109C536.98 298.23 537.475 297.038 537.476 295.795V258.919C537.475 257.675 536.98 256.484 536.101 255.604C535.222 254.725 534.03 254.231 532.787 254.23H463.563Z" fill="#3F3D56"/>
<path d="M323.921 522.436H254.697C253.024 522.434 251.42 521.768 250.238 520.585C249.055 519.403 248.389 517.799 248.388 516.126V479.25C248.389 477.577 249.055 475.974 250.238 474.791C251.42 473.608 253.024 472.942 254.697 472.94H323.921C325.593 472.942 327.197 473.608 328.38 474.791C329.563 475.974 330.228 477.577 330.23 479.25V516.126C330.228 517.799 329.563 519.403 328.38 520.586C327.197 521.768 325.593 522.434 323.921 522.436ZM254.697 474.561C253.454 474.562 252.262 475.057 251.383 475.936C250.504 476.815 250.009 478.007 250.008 479.25V516.126C250.009 517.369 250.504 518.561 251.383 519.44C252.262 520.319 253.454 520.814 254.697 520.815H323.921C325.164 520.814 326.356 520.319 327.235 519.44C328.114 518.561 328.608 517.369 328.609 516.126V479.25C328.608 478.007 328.114 476.815 327.235 475.936C326.356 475.057 325.164 474.562 323.921 474.561H254.697Z" fill="#3F3D56"/>
<path d="M429.262 522.436H360.039C358.366 522.434 356.762 521.768 355.579 520.586C354.397 519.403 353.731 517.799 353.729 516.126V479.25C353.731 477.577 354.397 475.974 355.579 474.791C356.762 473.608 358.366 472.942 360.039 472.94H429.262C430.935 472.942 432.539 473.608 433.722 474.791C434.905 475.974 435.57 477.577 435.572 479.25V516.126C435.57 517.799 434.905 519.403 433.722 520.585C432.539 521.768 430.935 522.434 429.262 522.436ZM360.039 474.561C358.796 474.562 357.604 475.057 356.725 475.936C355.846 476.815 355.351 478.007 355.35 479.25V516.126C355.351 517.369 355.846 518.561 356.725 519.44C357.604 520.319 358.796 520.814 360.039 520.815H429.262C430.506 520.814 431.697 520.319 432.576 519.44C433.455 518.561 433.95 517.369 433.951 516.126V479.25C433.95 478.007 433.455 476.815 432.576 475.936C431.697 475.057 430.506 474.562 429.262 474.561H360.039Z" fill="#3F3D56"/>
<path d="M534.604 522.436H465.38C463.708 522.434 462.104 521.768 460.921 520.586C459.738 519.403 459.073 517.799 459.071 516.126V479.25C459.073 477.577 459.738 475.974 460.921 474.791C462.104 473.608 463.708 472.942 465.38 472.94H534.604C536.277 472.942 537.881 473.608 539.063 474.791C540.246 475.974 540.912 477.577 540.913 479.25V516.126C540.912 517.799 540.246 519.403 539.063 520.585C537.881 521.768 536.277 522.434 534.604 522.436ZM465.38 474.561C464.137 474.562 462.945 475.057 462.066 475.936C461.187 476.815 460.693 478.007 460.692 479.25V516.126C460.693 517.369 461.187 518.561 462.066 519.44C462.945 520.319 464.137 520.814 465.38 520.815H534.604C535.847 520.814 537.039 520.319 537.918 519.44C538.797 518.561 539.291 517.369 539.293 516.126V479.25C539.291 478.007 538.797 476.815 537.918 475.936C537.039 475.057 535.847 474.562 534.604 474.561H465.38Z" fill="#3F3D56"/>
<path d="M323.921 628.588H254.697C253.024 628.586 251.42 627.921 250.238 626.738C249.055 625.555 248.389 623.951 248.388 622.278V585.402C248.389 583.73 249.055 582.126 250.238 580.943C251.42 579.76 253.024 579.095 254.697 579.093H323.921C325.593 579.095 327.197 579.76 328.38 580.943C329.563 582.126 330.228 583.73 330.23 585.402V622.278C330.228 623.951 329.563 625.555 328.38 626.738C327.197 627.921 325.593 628.586 323.921 628.588ZM254.697 580.713C253.454 580.715 252.262 581.209 251.383 582.088C250.504 582.967 250.009 584.159 250.008 585.402V622.278C250.009 623.522 250.504 624.713 251.383 625.592C252.262 626.472 253.454 626.966 254.697 626.967H323.921C325.164 626.966 326.356 626.472 327.235 625.592C328.114 624.713 328.608 623.522 328.609 622.278V585.402C328.608 584.159 328.114 582.967 327.235 582.088C326.356 581.209 325.164 580.715 323.921 580.713H254.697Z" fill="#3F3D56"/>
<path d="M429.262 628.588H360.039C358.366 628.586 356.762 627.921 355.579 626.738C354.397 625.555 353.731 623.951 353.729 622.278V585.402C353.731 583.73 354.397 582.126 355.579 580.943C356.762 579.76 358.366 579.095 360.039 579.093H429.262C430.935 579.095 432.539 579.76 433.722 580.943C434.905 582.126 435.57 583.73 435.572 585.402V622.278C435.57 623.951 434.905 625.555 433.722 626.738C432.539 627.921 430.935 628.586 429.262 628.588ZM360.039 580.713C358.796 580.715 357.604 581.209 356.725 582.088C355.846 582.967 355.351 584.159 355.35 585.402V622.278C355.351 623.522 355.846 624.713 356.725 625.592C357.604 626.472 358.796 626.966 360.039 626.967H429.262C430.506 626.966 431.697 626.472 432.576 625.592C433.455 624.713 433.95 623.522 433.951 622.278V585.402C433.95 584.159 433.455 582.967 432.576 582.088C431.697 581.209 430.506 580.715 429.262 580.713H360.039Z" fill="#3F3D56"/>
<path d="M534.604 628.588H465.38C463.708 628.586 462.104 627.921 460.921 626.738C459.738 625.555 459.073 623.951 459.071 622.278V585.402C459.073 583.73 459.738 582.126 460.921 580.943C462.104 579.76 463.708 579.095 465.38 579.093H534.604C536.277 579.095 537.881 579.76 539.063 580.943C540.246 582.126 540.912 583.73 540.913 585.402V622.278C540.912 623.951 540.246 625.555 539.063 626.738C537.881 627.921 536.277 628.586 534.604 628.588ZM465.38 580.713C464.137 580.715 462.945 581.209 462.066 582.088C461.187 582.967 460.693 584.159 460.692 585.402V622.278C460.693 623.522 461.187 624.713 462.066 625.592C462.945 626.472 464.137 626.966 465.38 626.967H534.604C535.847 626.966 537.039 626.472 537.918 625.592C538.797 624.713 539.291 623.522 539.293 622.278V585.402C539.291 584.159 538.797 582.967 537.918 582.088C537.039 581.209 535.847 580.715 534.604 580.713H465.38Z" fill="#3F3D56"/>
<path d="M436.578 706.518C436.601 704.668 435.888 702.886 434.596 701.562C433.304 700.239 431.54 699.482 429.691 699.459H395.657V783.328H436.578V706.518Z" fill="#7B788B"/>
<path d="M396.467 782.518H353.925V706.753C353.928 704.712 354.74 702.755 356.183 701.312C357.626 699.869 359.583 699.057 361.623 699.055H396.467V782.518ZM355.546 780.897H394.847V700.675H361.623C360.012 700.677 358.467 701.318 357.328 702.457C356.189 703.597 355.548 705.141 355.546 706.753V780.897Z" fill="#3F3D56"/>
<path d="M359.193 746.459C360.535 746.459 361.624 745.37 361.624 744.028C361.624 742.685 360.535 741.597 359.193 741.597C357.85 741.597 356.762 742.685 356.762 744.028C356.762 745.37 357.85 746.459 359.193 746.459Z" fill="#3F3D56"/>
<path d="M538.1 222.143C538.1 222.783 538.09 223.433 538.08 224.073C538.07 224.843 538.05 225.603 538.02 226.373C537.99 227.043 537.96 227.703 537.92 228.363C537.8 230.573 537.61 232.773 537.35 234.983C537.29 235.543 537.22 236.093 537.14 236.653C537.08 237.083 537.02 237.523 536.95 237.963C536.88 238.453 536.81 238.943 536.73 239.433C536.57 240.473 536.39 241.513 536.19 242.553C536.09 243.073 535.99 243.593 535.88 244.113C535.67 245.143 535.44 246.183 535.2 247.213C535.18 247.293 535.16 247.383 535.14 247.463C535.02 247.973 534.9 248.473 534.77 248.983C534.73 249.133 534.7 249.273 534.65 249.423C534.56 249.803 534.46 250.183 534.36 250.563C534.22 251.093 534.08 251.613 533.93 252.143C533.69 252.963 533.45 253.773 533.2 254.593C533.169 254.678 533.142 254.765 533.12 254.853C532.64 256.403 532.13 257.933 531.57 259.453C531.28 260.253 530.97 261.063 530.66 261.863C530.35 262.663 530.03 263.463 529.7 264.253C529.38 265.023 529.05 265.793 528.72 266.553C528.64 266.733 528.56 266.913 528.47 267.093C528.12 267.883 527.76 268.653 527.39 269.423C527.38 269.433 527.38 269.453 527.37 269.463C527.08 270.083 526.77 270.703 526.46 271.313C526.459 271.332 526.452 271.349 526.44 271.363C526.14 271.963 525.83 272.563 525.51 273.153L525 274.123L524.94 274.233C524.3 275.423 523.64 276.603 522.94 277.773C522.79 278.033 522.64 278.293 522.49 278.543C522.34 278.803 522.18 279.063 522.02 279.313C521.92 279.493 521.81 279.673 521.69 279.853C521.48 280.193 521.27 280.543 521.05 280.883C521.01 280.953 520.96 281.023 520.92 281.093C520.54 281.683 520.16 282.263 519.78 282.853C519.31 283.563 518.83 284.263 518.34 284.963L507.48 302.343L507.01 301.953L506.88 301.833H506.87L506.44 301.473L505.26 300.473C504.9 300.823 504.55 301.173 504.19 301.513C504.05 301.653 503.9 301.783 503.76 301.923C503.65 302.023 503.55 302.123 503.44 302.223C484.665 320.558 459.69 331.175 433.46 331.973H433.43C413.573 332.518 393.917 327.879 376.4 318.513C376.01 318.313 375.63 318.113 375.25 317.883C372.97 316.643 370.74 315.333 368.55 313.933C368.54 313.923 368.53 313.923 368.52 313.913C365.98 312.113 363.5 310.193 361.08 308.153C348.097 297.21 337.826 283.408 331.071 267.829C324.317 252.251 321.264 235.319 322.15 218.363C322.18 217.693 322.22 217.033 322.27 216.363C322.43 213.943 322.677 211.533 323.01 209.133C323.1 208.463 323.2 207.793 323.3 207.133H537.08C537.5 210.193 537.79 213.269 537.95 216.363C538.05 218.293 538.1 220.213 538.1 222.143Z" fill="#F0F0F0"/>
<path d="M537.08 207.133C533.231 181.538 520.326 158.175 500.711 141.288C481.095 124.402 456.072 115.115 430.19 115.115C404.307 115.115 379.284 124.402 359.669 141.288C340.054 158.175 327.149 181.538 323.3 207.133C323.2 207.793 323.1 208.463 323.01 209.133C322.68 211.533 322.433 213.943 322.27 216.363H537.95C537.79 213.273 537.5 210.196 537.08 207.133Z" fill="#020153"/>
<path d="M437.192 318.51H375.255V268.964C376.397 246.321 395.75 244.492 413.935 245.707C416.989 245.707 420.013 246.309 422.835 247.477C425.657 248.646 428.221 250.359 430.38 252.519C432.54 254.678 434.253 257.242 435.422 260.064C436.591 262.885 437.192 265.91 437.192 268.964V318.51Z" fill="#020153"/>
<path d="M375.25 283.283V283.293C375.25 283.303 375.26 283.303 375.27 283.303L375.25 283.283ZM350.34 207.133C350.3 207.383 350.25 207.633 350.21 207.883C350.25 207.633 350.3 207.383 350.35 207.133H350.34ZM349.1 216.363C349.07 216.743 349.04 217.123 349.02 217.503C349.04 217.123 349.07 216.743 349.11 216.363C349.108 216.293 349.112 216.223 349.12 216.153C349.11 216.223 349.11 216.293 349.1 216.363ZM375.25 283.293C375.25 283.303 375.26 283.303 375.27 283.303L375.25 283.283V283.293ZM350.34 207.133C350.3 207.383 350.25 207.633 350.21 207.883C350.25 207.633 350.3 207.383 350.35 207.133H350.34ZM349.02 217.503C349.04 217.123 349.07 216.743 349.11 216.363C349.108 216.293 349.112 216.223 349.12 216.153C349.11 216.223 349.11 216.293 349.1 216.363C349.07 216.743 349.04 217.123 349.02 217.503ZM657.96 401.463C657.765 401.257 657.558 401.063 657.34 400.883L657.33 400.873L607.81 359.083L606.53 358.003L601.66 353.893L600.44 352.863L593.5 347.003L591.6 345.403L587.67 342.083L585.66 340.383L566.7 324.393L555.83 315.223L554.37 313.993L522.34 286.963C522.83 286.263 523.31 285.563 523.78 284.853C524.16 284.263 524.54 283.683 524.92 283.093C524.96 283.023 525.01 282.953 525.05 282.883C525.27 282.543 525.48 282.193 525.69 281.853C525.81 281.673 525.92 281.493 526.02 281.313C526.18 281.063 526.34 280.803 526.49 280.543C526.64 280.293 526.79 280.033 526.94 279.773C527.64 278.603 528.3 277.423 528.94 276.233L529 276.123L529.51 275.153C529.83 274.563 530.14 273.963 530.44 273.363C530.452 273.35 530.459 273.332 530.46 273.313C530.77 272.703 531.08 272.083 531.37 271.463C531.38 271.453 531.38 271.433 531.39 271.423C531.76 270.653 532.12 269.883 532.47 269.093C532.56 268.913 532.64 268.733 532.72 268.553C533.05 267.793 533.38 267.023 533.7 266.253C534.03 265.463 534.35 264.663 534.66 263.863C534.97 263.063 535.28 262.253 535.57 261.453C536.12 259.923 536.637 258.39 537.12 256.853C537.142 256.765 537.169 256.678 537.2 256.593C537.45 255.773 537.69 254.963 537.93 254.143C538.08 253.613 538.22 253.093 538.36 252.563C538.46 252.183 538.56 251.803 538.65 251.423C538.7 251.273 538.73 251.133 538.77 250.983C538.9 250.473 539.02 249.973 539.14 249.463C539.16 249.383 539.18 249.293 539.2 249.213C539.44 248.183 539.67 247.143 539.88 246.113C539.99 245.593 540.09 245.073 540.19 244.553C540.38 243.513 540.57 242.473 540.73 241.433C540.81 240.943 540.88 240.453 540.95 239.963C541.02 239.523 541.08 239.083 541.14 238.653C541.22 238.093 541.29 237.543 541.35 236.983C541.61 234.773 541.8 232.573 541.92 230.363C541.96 229.703 541.99 229.043 542.02 228.373C542.05 227.603 542.07 226.843 542.08 226.073C542.09 225.433 542.1 224.783 542.1 224.143C542.1 222.213 542.05 220.293 541.95 218.363C541.79 215.273 541.5 212.197 541.08 209.133C537.497 182.948 524.61 158.926 504.776 141.46C484.941 123.993 459.482 114.247 433.054 114.005C406.626 113.762 380.993 123.038 360.841 140.138C340.688 157.237 327.363 181.018 323.3 207.133C323.2 207.793 323.1 208.463 323.01 209.133C322.68 211.533 322.433 213.943 322.27 216.363C322.22 217.033 322.18 217.693 322.15 218.363C321.264 235.32 324.317 252.251 331.071 267.829C337.826 283.408 348.097 297.21 361.08 308.153C363.5 310.193 365.98 312.113 368.52 313.913C368.53 313.923 368.54 313.923 368.55 313.933C369.4 314.533 370.25 315.123 371.11 315.703C372.48 316.603 373.86 317.483 375.25 318.323C375.36 318.383 375.47 318.453 375.58 318.513C376.78 319.233 377.99 319.923 379.2 320.593H379.21C383.714 323.07 388.389 325.222 393.2 327.033C407.314 332.344 422.367 334.705 437.43 333.973H437.46C455.04 333.123 472.158 328.057 487.37 319.203C489.58 317.923 491.76 316.553 493.89 315.093C494.42 314.733 494.96 314.363 495.48 313.993C496.12 313.543 496.76 313.073 497.4 312.603C497.41 312.603 497.41 312.593 497.42 312.593C497.467 312.553 497.517 312.517 497.57 312.483C498 312.153 498.44 311.823 498.86 311.503C498.97 311.423 499.08 311.343 499.19 311.253C499.219 311.233 499.246 311.209 499.27 311.183C499.52 311.003 499.76 310.803 500.01 310.613C500.26 310.423 500.5 310.223 500.75 310.023C500.792 309.996 500.832 309.966 500.87 309.933C501.15 309.703 501.43 309.483 501.71 309.253C502 309.023 502.28 308.783 502.55 308.553C502.83 308.323 503.1 308.093 503.38 307.853C503.62 307.653 503.87 307.443 504.11 307.223C504.19 307.163 504.26 307.093 504.34 307.023C504.371 306.993 504.404 306.967 504.44 306.943C504.77 306.663 505.09 306.373 505.41 306.083C505.49 306.013 505.56 305.943 505.64 305.873C506.13 305.433 506.62 304.993 507.1 304.533C507.21 304.433 507.33 304.323 507.44 304.223C507.55 304.123 507.65 304.023 507.76 303.923C507.9 303.783 508.05 303.653 508.19 303.513C508.55 303.173 508.9 302.823 509.26 302.473L510.44 303.473L510.87 303.833H510.88L511.01 303.953L511.48 304.343L518.46 310.243L518.61 310.373L518.73 310.463L519.52 311.133L521.1 312.473L522.68 313.803L522.91 313.993L530.26 320.193L531.28 321.053L538.37 327.033L575.07 358.003L576.35 359.083L626.58 401.463L639.46 412.333L644.25 416.373C645.266 417.234 646.443 417.885 647.711 418.29C648.98 418.696 650.316 418.847 651.644 418.736C652.971 418.624 654.263 418.252 655.446 417.641C656.63 417.03 657.681 416.191 658.54 415.173C659.259 414.329 659.831 413.368 660.23 412.333C660.956 410.498 661.128 408.49 660.724 406.558C660.321 404.626 659.36 402.854 657.96 401.463ZM368.29 169.653C378.322 157.765 391.513 148.957 406.339 144.247C421.164 139.538 437.02 139.118 452.074 143.038C467.128 146.957 480.766 155.056 491.412 166.398C502.059 177.739 509.279 191.862 512.24 207.133C512.37 207.803 512.49 208.463 512.6 209.133C513.01 211.523 513.31 213.943 513.49 216.363C513.54 217.033 513.59 217.693 513.62 218.363C513.71 219.863 513.75 221.373 513.75 222.873C513.756 231.972 512.248 241.009 509.29 249.613V249.623C505.984 259.271 500.907 268.217 494.32 276.003C494.18 276.163 494.04 276.333 493.89 276.493C492.57 278.053 491.18 279.553 489.75 280.983C489.74 280.993 489.73 281.013 489.72 281.023C489.23 281.513 488.73 282.013 488.23 282.473C487.21 283.463 486.17 284.403 485.11 285.303C483.52 286.693 481.89 287.997 480.22 289.213C479.66 289.623 479.1 290.023 478.53 290.423C477.97 290.823 477.4 291.203 476.83 291.583C475.69 292.343 474.53 293.073 473.36 293.763C472.78 294.113 472.18 294.453 471.59 294.783C471 295.123 470.4 295.443 469.8 295.753C469.2 296.073 468.6 296.383 467.99 296.683C466.78 297.293 465.56 297.863 464.32 298.393C463.7 298.673 463.08 298.933 462.46 299.173C462.07 299.333 461.69 299.493 461.3 299.633C461.147 299.704 460.99 299.764 460.83 299.813C460.62 299.903 460.41 299.983 460.2 300.053C460.132 300.084 460.061 300.111 459.99 300.133C459.56 300.303 459.14 300.453 458.7 300.603C458.07 300.833 457.44 301.043 456.8 301.243C456.16 301.453 455.53 301.653 454.89 301.833C454.25 302.033 453.6 302.213 452.96 302.383C452.31 302.563 451.67 302.733 451.02 302.883C450.33 303.063 449.64 303.223 448.94 303.373C448.33 303.513 447.73 303.633 447.12 303.743C446.55 303.863 445.97 303.963 445.4 304.063C444.6 304.203 443.8 304.333 442.99 304.443C442.55 304.513 442.12 304.573 441.68 304.613C441.49 304.643 441.31 304.663 441.13 304.683C440.57 304.763 440.01 304.823 439.46 304.873C439.31 304.883 439.17 304.903 439.03 304.913C438.42 304.973 437.8 305.023 437.19 305.073C435.88 305.163 434.58 305.223 433.27 305.253C432.61 305.263 431.94 305.273 431.28 305.273C430.62 305.273 429.96 305.263 429.3 305.243C429.3 305.243 429.3 305.253 429.29 305.243C429.28 305.253 429.28 305.253 429.27 305.243C429.268 305.245 429.267 305.246 429.265 305.246C429.263 305.247 429.262 305.247 429.26 305.247C429.258 305.247 429.256 305.247 429.254 305.246C429.253 305.246 429.251 305.245 429.25 305.243C429.217 305.253 429.182 305.253 429.15 305.243C428.68 305.243 428.21 305.223 427.75 305.193C427.41 305.183 427.06 305.173 426.71 305.143C426.24 305.123 425.77 305.093 425.3 305.053C425.15 305.053 425 305.033 424.85 305.023C424.779 305.022 424.709 305.015 424.64 305.003C424.16 304.963 423.67 304.923 423.19 304.873C422.95 304.853 422.7 304.833 422.46 304.803C421.73 304.723 421 304.633 420.28 304.533C419.46 304.433 418.64 304.313 417.83 304.163C417.45 304.113 417.08 304.043 416.71 303.973C416.22 303.893 415.73 303.803 415.24 303.703C414.73 303.603 414.22 303.503 413.71 303.383C413.3 303.293 412.88 303.203 412.47 303.103C412.27 303.063 412.07 303.013 411.88 302.963C410.83 302.713 409.79 302.443 408.76 302.143C408.11 301.963 407.46 301.773 406.82 301.573C405.94 301.303 405.07 301.013 404.2 300.703C403.86 300.593 403.53 300.473 403.19 300.343C402.85 300.233 402.52 300.103 402.18 299.973C401.87 299.863 401.56 299.743 401.26 299.623C400.76 299.433 400.27 299.233 399.78 299.033C398.77 298.623 397.78 298.193 396.79 297.733C396.23 297.463 395.67 297.203 395.12 296.933C392.95 295.883 390.813 294.717 388.71 293.433C388.19 293.123 387.67 292.793 387.15 292.463C386.5 292.063 385.87 291.643 385.24 291.223C384.89 290.983 384.55 290.753 384.21 290.513C383.58 290.073 382.96 289.623 382.35 289.173C382.03 288.943 381.71 288.703 381.4 288.463C380.29 287.623 379.2 286.743 378.13 285.843C377.62 285.413 377.11 284.973 376.61 284.523C376.4 284.343 376.19 284.153 375.98 283.963C375.74 283.743 375.5 283.533 375.27 283.303L375.25 283.283C374.9 282.973 374.55 282.643 374.21 282.313C373.68 281.813 373.16 281.303 372.66 280.783C372.14 280.273 371.64 279.743 371.15 279.223C370.65 278.703 370.17 278.173 369.7 277.633C369.22 277.103 368.75 276.563 368.29 276.013C367.84 275.493 367.4 274.953 366.98 274.423C365.96 273.163 364.986 271.88 364.06 270.573C363.63 269.973 363.22 269.373 362.82 268.763C362.39 268.143 361.98 267.513 361.59 266.883C361.18 266.253 360.79 265.613 360.41 264.963C360.4 264.941 360.386 264.921 360.37 264.903C359.62 263.633 358.9 262.353 358.23 261.053C357.54 259.733 356.89 258.4 356.28 257.053C355.97 256.383 355.67 255.703 355.39 255.023C354.81 253.653 354.27 252.283 353.77 250.893C353.52 250.223 353.29 249.553 353.06 248.873C353.052 248.828 353.039 248.785 353.02 248.743C352.56 247.363 352.14 245.973 351.77 244.573C351.76 244.553 351.76 244.533 351.75 244.513C351.56 243.823 351.38 243.133 351.22 242.433C351.06 241.823 350.92 241.213 350.79 240.593C350.64 239.903 350.49 239.213 350.36 238.513C350.29 238.153 350.22 237.793 350.16 237.433C350.1 237.133 350.05 236.823 350 236.523C349.95 236.223 349.9 235.913 349.85 235.603C349.75 234.993 349.66 234.383 349.58 233.773C349.48 233.053 349.4 232.333 349.32 231.603C349.23 230.733 349.15 229.863 349.08 228.983C349.03 228.393 349 227.793 348.97 227.193C348.94 226.643 348.91 226.093 348.9 225.543C348.89 225.514 348.89 225.482 348.9 225.453C348.898 225.452 348.897 225.45 348.897 225.449C348.896 225.447 348.895 225.445 348.895 225.443C348.895 225.441 348.896 225.44 348.897 225.438C348.897 225.436 348.898 225.435 348.9 225.433C348.89 225.423 348.89 225.423 348.9 225.413C348.898 225.412 348.897 225.41 348.897 225.409C348.896 225.407 348.895 225.405 348.895 225.403C348.895 225.401 348.896 225.4 348.897 225.398C348.897 225.396 348.898 225.395 348.9 225.393C348.89 225.173 348.88 224.953 348.88 224.733C348.86 224.083 348.85 223.433 348.85 222.783C348.85 222.193 348.86 221.613 348.87 221.023C348.89 220.203 348.92 219.383 348.96 218.563C348.96 218.383 348.98 218.213 348.99 218.033C349 217.853 349.01 217.683 349.02 217.503C349.04 217.123 349.07 216.743 349.11 216.363C349.108 216.293 349.111 216.223 349.12 216.153C349.15 215.723 349.19 215.293 349.23 214.863C349.31 214.003 349.41 213.133 349.52 212.273C349.58 211.843 349.63 211.413 349.7 210.983C349.74 210.683 349.79 210.373 349.84 210.063C349.88 209.753 349.93 209.443 349.99 209.133C350.06 208.723 350.13 208.303 350.209 207.883C350.249 207.633 350.3 207.383 350.35 207.133C350.54 206.133 350.75 205.133 350.979 204.133C351.209 203.123 351.47 202.123 351.75 201.123C352.02 200.113 352.32 199.103 352.64 198.093C352.79 197.583 352.95 197.083 353.13 196.583C353.459 195.573 353.81 194.573 354.2 193.583C354.38 193.093 354.57 192.593 354.78 192.103C355.18 191.113 355.6 190.123 356.03 189.153C356.25 188.663 356.47 188.173 356.709 187.683C357.16 186.713 357.63 185.743 358.14 184.793C358.63 183.823 359.16 182.873 359.7 181.933C360.24 180.993 360.8 180.053 361.39 179.123C361.66 178.663 361.959 178.193 362.27 177.743C362.87 176.823 363.5 175.903 364.14 175.003C365.43 173.183 366.82 171.393 368.29 169.653ZM349.1 216.363C349.07 216.743 349.04 217.123 349.02 217.503C349.04 217.123 349.07 216.743 349.11 216.363C349.108 216.293 349.112 216.223 349.12 216.153C349.11 216.223 349.11 216.293 349.1 216.363ZM350.34 207.133C350.3 207.383 350.25 207.633 350.21 207.883C350.25 207.633 350.3 207.383 350.35 207.133H350.34ZM375.25 283.283V283.293C375.25 283.303 375.26 283.303 375.27 283.303L375.25 283.283Z" fill="#3F3D56"/>
<path opacity="0.3" d="M378.131 285.842C362.314 272.494 352.094 253.686 349.503 233.153C346.911 212.619 352.136 191.862 364.14 175.002C362.563 176.59 361.039 178.252 359.568 179.99C352.585 188.265 347.301 197.835 344.017 208.152C340.732 218.47 339.512 229.333 340.426 240.122C341.34 250.911 344.371 261.414 349.344 271.032C354.317 280.65 361.136 289.194 369.411 296.176C386.123 310.278 407.754 317.164 429.543 315.318C451.332 313.472 471.495 303.046 485.597 286.333C487.065 284.593 488.448 282.811 489.745 280.987C475.145 295.657 455.563 304.299 434.886 305.199C414.209 306.098 393.949 299.189 378.131 285.842Z" fill="#7B788B"/>
</svg>
